<svg width="18" height="16" xmlns="http://www.w3.org/2000/svg">

 <g>
  <title>background</title>
  <rect fill="none" id="canvas_background" height="26" width="20" y="-1" x="-1"/>
 </g>
 <g>
  <title>Layer 1</title>
  <path id="svg_1" d="m0,0l24,0l0,24l-24,0l0,-24z" fill="none"/>
  <path id="svg_2" d="m15.6,5.499996l-5.987097,0l-1.496775,-1.499996l-4.490323,0c-0.830709,0 -1.48929,0.667498 -1.48929,1.499996l-0.007484,8.999973c0,0.832499 0.666065,1.499996 1.496774,1.499996l11.974194,0c0.830709,0 1.496775,-0.667498 1.496775,-1.499996l0,-7.499977c0,-0.832498 -0.666065,-1.499996 -1.496775,-1.499996zm-0.748387,5.999982l-2.245162,0l0,2.249993l-1.496774,0l0,-2.249993l-2.245161,0l0,-1.499995l2.245161,0l0,-2.249994l1.496774,0l0,2.249994l2.245162,0l0,1.499995z"/>
 </g>
</svg>